# Blender v2.70 (sub 0) OBJ File: ''
# www.blender.org
o Circle
v -1.000000 0.000000 0.000001
v -0.499999 0.000000 0.866026
v 0.500001 0.000000 0.866025
v 1.000000 0.000000 -0.000001
v 0.499999 0.000000 -0.866026
v -0.500000 0.000000 -0.866025
v -1.000000 0.050000 0.000001
v -0.499999 0.050000 0.866026
v 0.500001 0.050000 0.866025
v 1.000000 0.050000 -0.000001
v 0.499999 0.050000 -0.866026
v -0.500000 0.050000 -0.866025
v -0.488452 0.050000 0.846026
v -0.976906 0.050000 0.000001
v 0.488454 0.050000 0.846025
v 0.976906 0.050000 -0.000001
v 0.488452 0.050000 -0.846026
v -0.488453 0.050000 -0.846025
v -0.488452 0.000000 0.846026
v -0.976906 0.000000 0.000001
v 0.488454 0.000000 0.846025
v 0.976906 0.000000 -0.000001
v 0.488452 0.000000 -0.846026
v -0.488453 0.000000 -0.846025
v -0.488452 0.030000 0.846026
v -0.976906 0.030000 0.000001
v 0.488454 0.030000 0.846025
v 0.976906 0.030000 -0.000001
v 0.488452 0.030000 -0.846026
v -0.488453 0.030000 -0.846025
v -0.488452 0.020000 0.846026
v -0.976906 0.020000 0.000001
v 0.488454 0.020000 0.846025
v 0.976906 0.020000 -0.000001
v 0.488452 0.020000 -0.846026
v -0.488453 0.020000 -0.846025
vt 0.734006 0.922340
vt 0.733405 0.917196
vt 0.913259 0.808018
vt 0.941270 0.823049
vt 0.945843 0.825817
vt 0.734872 0.954323
vt 0.922371 0.813020
vt 0.936078 0.820531
vt 0.734401 0.943208
vt 0.733801 0.927574
vt 0.529225 0.831327
vt 0.542847 0.823304
vt 0.534480 0.594589
vt 0.548130 0.602083
vt 0.734269 0.467176
vt 0.734865 0.482990
vt 0.936286 0.584552
vt 0.922802 0.592448
vt 0.941112 0.581375
vt 0.733754 0.461328
vt 0.529332 0.592079
vt 0.524337 0.834575
vt 0.734907 0.948966
vt 0.918095 0.594739
vt 0.734640 0.488293
vt 0.552499 0.604924
vt 0.547618 0.820978
vt 0.917980 0.810158
vt 0.467013 0.525295
vt 0.192174 0.525295
vt 0.054755 0.287277
vt 0.519535 0.837134
vt 0.524793 0.589334
vt 0.733804 0.455887
vt 0.945843 0.578863
vt 0.604290 0.287342
vt 0.466870 0.525360
vt 0.192032 0.525359
vt 0.551913 0.817979
vt 0.557191 0.607063
vt 0.735251 0.493504
vt 0.913841 0.597683
vt 0.192174 0.049260
vt 0.467013 0.049260
vt 0.604433 0.287277
vt 0.192032 0.049325
vt 0.466870 0.049325
vt 0.054612 0.287342
vn 0.866026 0.000000 0.500000
vn 0.866026 0.000000 0.499999
vn -0.866026 0.000000 -0.499999
vn -0.000001 0.000000 -1.000000
vn 0.866025 0.000000 -0.500001
vn 0.000001 0.000000 1.000000
vn -0.866025 0.000000 0.500001
vn 0.000000 1.000000 -0.000000
vn 0.000000 -1.000000 0.000000
vn 0.866025 0.000000 -0.500000
s off
f 24/1/1 36/2/1 32/3/1
f 14/4/2 26/5/2 30/6/2
f 1/7/3 7/8/3 12/9/3
f 6/10/4 12/9/4 11/11/4
f 5/12/5 11/11/5 10/13/5
f 4/14/2 10/13/2 9/15/2
f 3/16/6 9/15/6 8/17/6
f 2/18/7 8/17/7 7/8/7
f 13/19/8 14/4/8 7/8/8
f 13/19/8 8/17/8 9/15/8
f 15/20/8 9/15/8 10/13/8
f 16/21/8 10/13/8 11/11/8
f 17/22/8 11/11/8 12/9/8
f 18/23/8 12/9/8 7/8/8
f 19/24/9 2/18/9 1/7/9
f 21/25/9 3/16/9 2/18/9
f 21/25/9 22/26/9 4/14/9
f 22/26/9 23/27/9 5/12/9
f 24/1/9 6/10/9 5/12/9
f 24/1/9 20/28/9 1/7/9
f 29/29/8 30/30/8 26/31/8
f 18/23/6 30/6/6 29/32/6
f 17/22/7 29/32/7 28/33/7
f 16/21/3 28/33/3 27/34/3
f 15/20/4 27/34/4 25/35/4
f 13/19/5 25/35/5 26/5/5
f 32/36/9 36/37/9 35/38/9
f 23/27/6 35/39/6 36/2/6
f 22/26/7 34/40/7 35/39/7
f 21/25/3 33/41/3 34/40/3
f 19/24/4 31/42/4 33/41/4
f 20/28/10 32/3/10 31/42/10
f 20/28/1 24/1/1 32/3/1
f 18/23/1 14/4/1 30/6/1
f 6/10/3 1/7/3 12/9/3
f 5/12/4 6/10/4 11/11/4
f 4/14/5 5/12/5 10/13/5
f 3/16/2 4/14/2 9/15/2
f 2/18/6 3/16/6 8/17/6
f 1/7/7 2/18/7 7/8/7
f 8/17/8 13/19/8 7/8/8
f 15/20/8 13/19/8 9/15/8
f 16/21/8 15/20/8 10/13/8
f 17/22/8 16/21/8 11/11/8
f 18/23/8 17/22/8 12/9/8
f 14/4/8 18/23/8 7/8/8
f 20/28/9 19/24/9 1/7/9
f 19/24/9 21/25/9 2/18/9
f 3/16/9 21/25/9 4/14/9
f 4/14/9 22/26/9 5/12/9
f 23/27/9 24/1/9 5/12/9
f 6/10/9 24/1/9 1/7/9
f 26/31/8 25/43/8 27/44/8
f 29/29/8 26/31/8 28/45/8
f 17/22/6 18/23/6 29/32/6
f 16/21/7 17/22/7 28/33/7
f 26/31/8 27/44/8 28/45/8
f 15/20/3 16/21/3 27/34/3
f 13/19/4 15/20/4 25/35/4
f 14/4/10 13/19/10 26/5/10
f 33/46/9 31/47/9 32/36/9
f 24/1/6 23/27/6 36/2/6
f 33/46/9 32/36/9 34/48/9
f 23/27/7 22/26/7 35/39/7
f 32/36/9 35/38/9 34/48/9
f 22/26/3 21/25/3 34/40/3
f 21/25/4 19/24/4 33/41/4
f 19/24/10 20/28/10 31/42/10